# xmcd
#
# Track frame offsets:
# 150
# 13402
# 29128
# 43994
# 60433
# 76836
# 92487
# 103957
# 122283
# 136098
#
# Disc length: 2065 seconds
#
#
# Revision: 0
# Processed by: cddbd v1.5.1PL0 Copyright (c) Steve Scherf et al.
# Submitted via: FreeRIP 2.941 
#
DISCID=7f080f0a
DTITLE=Rebecca LLewellyn - bring it home
DYEAR=2005
DGENRE=Country
TTITLE0=Love is a dangerous game
TTITLE1=I'm just me again
TTITLE2=A weekend father's life
TTITLE3=Rock on Sunday
TTITLE4=The singer
TTITLE5=Nobody's perfect
TTITLE6=When I will be loved
TTITLE7=Love at the millionth sight
TTITLE8=New man
TTITLE9=Bring it home
EXTD=
EXTT0=
EXTT1=
EXTT2=
EXTT3=
EXTT4=
EXTT5=
EXTT6=
EXTT7=
EXTT8=
EXTT9=
PLAYORDER=
